<svg xmlns="http://www.w3.org/2000/svg" width="1180" height="1202" viewBox="0 0 1180 1202"
  fill="none">
  <path opacity="0.2"
    d="M157.88 512.351C135.328 530.731 113.479 551.3 99.7521 577.248C79.564 615.398 79.8753 663.389 100.593 698.763C118.134 728.756 147.714 748.286 173.021 771.454C204.2 799.987 229.426 834.758 253.301 870.118C266.13 889.11 279.066 908.806 297.803 921.526C323.82 939.183 358.894 940.929 389.526 929.593C420.157 918.256 446.377 894.854 465.206 867.042C475.226 852.241 483.515 835.516 484.71 817.922C485.975 799.308 479.231 781.313 480.632 762.698C481.929 745.448 490.137 729.132 499.732 714.464C512.258 695.312 527.421 678.022 544.773 663.102C564.441 646.213 586.59 632.737 606.322 615.984C626.053 599.231 643.913 578.02 650.09 552.786C655.9 529.064 650.794 504.74 644.596 481.888C634.505 444.546 621.391 408.088 605.384 372.875C594.637 349.278 582.364 326.003 564.39 307.938C530.029 273.393 475.317 262.041 428.067 279.643C388.92 294.229 357.308 325.883 330.085 359.017C305.26 389.232 282.614 427.666 250.432 450.092C219.726 471.467 187.337 488.352 157.88 512.351Z"
    fill="#3D3D3D" />
  <path opacity="0.2"
    d="M906.091 733.382C942.345 710.566 977.963 684.428 1002.68 648.971C1039.03 596.842 1047.19 526.656 1023.26 471.245C1003.01 424.27 963.292 390.425 930.47 352.028C890.029 304.74 859.408 249.403 830.866 193.448C815.529 163.393 800.161 132.291 775.064 110.341C740.215 79.8718 689.274 71.0289 642.478 82.1009C595.683 93.1729 553.167 122.668 520.661 159.934C503.363 179.765 488.248 202.72 483.344 228.216C478.154 255.191 484.779 282.697 479.391 309.648C474.4 334.624 459.476 356.994 442.824 376.708C421.081 402.449 395.821 424.996 367.787 443.686C336.015 464.84 301.23 480.56 269.389 501.502C237.549 522.445 207.644 550.238 194.089 586.005C181.341 619.629 184.437 656.09 189.392 690.596C197.436 746.975 210.056 802.605 227.126 856.933C238.595 893.345 252.352 929.558 275.374 959.181C319.386 1015.83 397.298 1042.23 469.504 1024.98C529.326 1010.69 581.201 970.101 626.929 926.565C668.628 886.863 708.619 834.76 759.671 807.761C808.379 782.033 858.738 763.168 906.091 733.382Z"
    fill="#3D3D3D" />
  <path d="M385.398 744.933V769.153H392.398L391.043 743.153L385.398 744.933V744.933Z" fill="#AAABB0" />
  <path d="M285.398 740.933V765.153H292.398L291.044 739.153L285.398 740.933V740.933Z" fill="#AAABB0" />
  <rect x="393.398" y="702.153" width="9" height="42" rx="4.5" fill="#AAABB0" />
  <rect x="282.398" y="693.153" width="9" height="52" rx="4.5" fill="#AAABB0" />
  <path
    d="M414.398 449.784C414.398 449.784 423.125 446.115 424.434 449.784C425.744 453.452 426.398 485.153 426.398 485.153H418.104L414.398 449.784Z"
    fill="#AAABB0" />
  <path
    d="M318.398 449.784C318.398 449.784 309.67 446.115 308.361 449.784C307.053 453.452 306.398 485.153 306.398 485.153H314.689L318.398 449.784Z"
    fill="#AAABB0" />
  <path d="M319.732 417.825L318.398 445.153H324.398V417.153L319.732 417.825V417.825Z" fill="#AAABB0" />
  <path
    d="M314.398 486.153L316.143 447.574C316.143 447.574 315.489 439.026 336.172 441.656C356.854 444.286 417.398 449.547 417.398 449.547V486.153H314.398Z"
    fill="#33323D" />
  <path
    d="M397.398 686.885L394.112 745.036C394.112 745.036 345.902 771.413 287.398 746.333L292.657 685.153L397.398 686.885Z"
    fill="#33323D" />
  <path d="M351.398 456.324L352.489 494.153H420.398L416.456 444.153L351.398 456.324V456.324Z"
    fill="#444053" />
  <rect x="295.398" y="662.153" width="63" height="80" fill="black" />
  <path
    d="M335.423 694.599C335.423 694.599 344.646 687.38 346.182 689.565C347.717 691.751 340.7 701.161 337.841 700.065C334.982 698.969 335.423 694.599 335.423 694.599Z"
    fill="#FFB9B9" />
  <rect x="171.398" y="483.153" width="417" height="208" fill="#CDCDCD" />
  <path
    d="M314.846 415.676C314.846 415.676 311.589 385.25 314.846 381.56C318.102 377.87 372.805 342.874 423.386 383.947C423.386 383.947 428.16 384.168 427.293 395.029C426.783 401.904 426.818 408.808 427.398 415.676C427.398 415.676 318.538 423.5 314.846 415.676Z"
    fill="#33323D" />
  <path opacity="0.1"
    d="M314.846 415.676C314.846 415.676 311.589 385.25 314.846 381.56C318.102 377.87 372.805 342.874 423.386 383.947C423.386 383.947 428.16 384.168 427.293 395.029C426.783 401.904 426.818 408.808 427.398 415.676C427.398 415.676 318.538 423.5 314.846 415.676Z"
    fill="black" />
  <path
    d="M314.846 420.676C314.846 420.676 311.589 390.25 314.846 386.56C318.102 382.87 372.805 347.874 423.386 388.947C423.386 388.947 428.16 389.168 427.293 400.029C426.783 406.904 426.818 413.808 427.398 420.676C427.398 420.676 318.538 428.5 314.846 420.676Z"
    fill="#33323D" />
  <path
    d="M429.762 406.153C429.762 406.153 433.283 419.242 432.187 421.421C431.09 423.6 431.288 429.713 431.288 429.713C431.288 429.713 431.526 433.639 429.762 434.071C427.998 434.503 426.459 434.726 427.886 436.035C429.313 437.343 427.886 439.307 427.886 439.307C427.886 439.307 427.113 442.363 427.886 444.326C428.659 446.289 423.367 447.107 423.816 449.562C424.265 452.016 425.745 458.939 423.816 459.162C421.887 459.384 424.477 467.886 422.739 467.886C421.002 467.886 419.766 483.153 419.766 483.153C419.766 483.153 407.544 472.905 399.398 475.739C399.398 475.739 400.059 467.231 402.702 464.175C405.344 461.119 404.545 453.272 404.545 453.272L417.652 414.222L429.762 406.153Z"
    fill="white" />
  <path
    d="M364.851 585.768C362.082 588.856 359.096 572.366 359.096 572.366C359.096 572.366 351.21 583.325 346.094 576.021C342.551 570.961 345.346 556.624 347.373 548.302C348.281 544.601 349.049 542.087 349.049 542.087L360.56 540.153C360.56 540.153 360.599 542.68 360.854 545.749C361.2 549.894 361.948 555.038 363.54 556.269C366.348 558.403 367.627 582.654 364.851 585.768Z"
    fill="#AE6E79" />
  <path opacity="0.1"
    d="M358.195 391.216C358.195 391.216 337.711 391.002 332.705 401.827C327.699 412.652 327.476 416.342 325.516 418.071C323.555 419.799 346.862 428.902 346.862 428.902L347.953 466.153C347.953 466.153 352.528 461.546 359.933 463.632C367.338 465.718 376.711 463.632 376.711 463.632C376.711 463.632 376.273 462.846 382.377 463.632C388.482 464.418 407.867 454.243 407.867 454.243C407.867 454.243 408.187 437.947 407.756 434.477C407.324 431.008 421.586 405.511 421.586 405.511C421.586 405.511 432.697 394.9 421.154 391.216C421.154 391.216 417.069 385.095 406.56 385.154C396.05 385.212 358.195 391.216 358.195 391.216Z"
    fill="black" />
  <path
    d="M359.16 390.216C359.16 390.216 338.698 390.002 333.697 400.827C328.696 411.652 328.474 415.342 326.515 417.071C324.557 418.799 347.839 427.902 347.839 427.902L348.929 465.153C348.929 465.153 353.499 460.546 360.896 462.632C368.293 464.718 377.656 462.632 377.656 462.632C377.656 462.632 377.218 461.846 383.316 462.632C389.414 463.418 408.779 453.243 408.779 453.243C408.779 453.243 416.391 440.898 415.96 437.434C415.529 433.971 431.192 407.76 431.192 407.76C431.192 407.76 433.588 393.9 422.052 390.216C422.052 390.216 417.971 384.095 407.473 384.154C396.974 384.212 359.16 390.216 359.16 390.216Z"
    fill="white" />
  <path opacity="0.1"
    d="M360.398 545.622C356.162 544.267 349.514 547.255 347.398 548.153C348.274 544.52 349.014 542.052 349.014 542.052L360.115 540.153C360.115 540.153 360.133 542.634 360.398 545.622Z"
    fill="black" />
  <path
    d="M333.284 417.153H326.979C326.979 417.153 325.673 430.451 326.979 434.374C328.284 438.297 328.937 437.728 328.499 440.631C328.062 443.534 331.548 447.98 331.548 447.98C331.548 447.98 331.978 458.937 334.158 463.017C336.338 467.096 331.763 485.389 331.763 485.389C333.011 488.547 334.857 491.434 337.2 493.889C340.901 497.589 342.859 511.319 341.769 516.549C340.679 521.779 344.817 523.741 344.817 523.741C344.817 523.741 346.56 548.153 347.213 548.153C347.865 548.153 360.482 541.615 364.398 547.277L361.35 524.833L361.572 481.467C361.572 481.467 357.434 476.014 359.614 471.222C361.794 466.43 357.871 455.093 357.871 455.093L352.212 429.817L333.284 417.153Z"
    fill="white" />
  <path
    d="M293.007 761.025C293.007 761.025 283.869 759.064 283.654 761.025C283.438 762.987 272.773 783.039 286.049 788.924C299.325 794.808 334.78 807.447 392.44 791.101C392.44 791.101 396.134 792.409 395.266 784.347C394.398 776.285 394.398 767.348 394.398 767.348C394.398 767.348 385.691 764.948 379.164 765.824C372.637 766.7 315.852 778.247 293.007 761.025Z"
    fill="#33323D" />
  <path opacity="0.1"
    d="M293.007 761.025C293.007 761.025 283.869 759.064 283.654 761.025C283.438 762.987 272.773 783.039 286.049 788.924C299.325 794.808 334.78 807.447 392.44 791.101C392.44 791.101 396.134 792.409 395.266 784.347C394.398 776.285 394.398 767.348 394.398 767.348C394.398 767.348 385.691 764.948 379.164 765.824C372.637 766.7 315.852 778.247 293.007 761.025Z"
    fill="black" />
  <path
    d="M293.007 758.025C293.007 758.025 283.869 756.064 283.654 758.025C283.438 759.987 272.773 780.039 286.049 785.924C299.325 791.808 334.78 804.447 392.44 788.101C392.44 788.101 396.134 789.409 395.266 781.347C394.398 773.285 394.398 764.348 394.398 764.348C394.398 764.348 385.691 761.948 379.164 762.824C372.637 763.7 315.852 775.247 293.007 758.025Z"
    fill="#33323D" />
  <path
    d="M346.448 425.451C345.887 428.623 344.614 431.672 344.418 434.884C344.222 438.095 345.469 441.748 348.451 443.006C349.284 443.253 350.09 443.579 350.86 443.979C352.008 444.751 352.478 446.205 352.719 447.567C353.04 449.326 353.117 451.12 352.948 452.9C352.785 454.69 352.4 456.617 353.287 458.181C354.847 460.951 358.913 460.542 362.006 459.764L360.942 467.957C360.857 468.606 360.805 469.339 361.282 469.78C361.736 470.099 362.301 470.22 362.848 470.118C365.537 469.949 368.304 469.579 370.607 468.171C372.911 466.764 374.627 464.143 374.19 461.502C373.681 458.44 370.496 456.007 370.927 452.932C371.26 450.551 373.603 449.04 375.143 447.21C377.93 443.863 378.08 438.776 375.894 434.988C373.707 431.199 369.485 428.85 365.139 428.422C362.73 428.182 360.224 428.474 357.96 427.644C356.363 427.061 355.131 425.77 354.632 424.153"
    fill="#444053" />
  <path
    d="M271.398 715.056L273.654 709.959C273.654 709.959 285.827 698.189 288.625 697.364C291.423 696.539 302.841 692.944 304.567 692.944C306.292 692.944 337.741 691.153 337.741 691.153L341.398 700.1L301.93 709.093L288.625 719.153L271.398 715.056Z"
    fill="#8D8D8D" />
  <path
    d="M367.398 581.616L365.306 597.667L364.5 603.846L355.102 605.153C355.102 605.153 354.085 602.983 352.649 599.648C348.288 589.527 340.077 568.658 344.838 565.055C351.167 560.256 352.708 576.17 352.708 576.17L359.922 572.679L367.398 581.616Z"
    fill="#FFB9B9" />
  <rect x="318.398" y="611.153" width="47" height="71" fill="white" />
  <rect opacity="0.1" x="318.398" y="611.153" width="47" height="71" fill="black" />
  <path d="M339.554 608.244L386.263 615.146L375.831 685.682L329.122 678.779L339.554 608.244Z"
    fill="white" />
  <path d="M343.951 614.97L367.993 618.524L362.624 654.827L338.582 651.274L343.951 614.97Z"
    fill="#1C1D21" />
  <path d="M336.004 661.605L365.132 665.91L363.966 673.793L334.838 669.489L336.004 661.605Z"
    fill="#1C1D21" />
  <path opacity="0.1"
    d="M377.398 431.153C392.31 431.153 404.398 419.065 404.398 404.153C404.398 389.242 392.31 377.153 377.398 377.153C362.487 377.153 350.398 389.242 350.398 404.153C350.398 419.065 362.487 431.153 377.398 431.153Z"
    fill="black" />
  <path
    d="M377.398 430.153C392.31 430.153 404.398 418.065 404.398 403.153C404.398 388.242 392.31 376.153 377.398 376.153C362.487 376.153 350.398 388.242 350.398 403.153C350.398 418.065 362.487 430.153 377.398 430.153Z"
    fill="#AE6E79" />
  <path
    d="M355.064 423.906C354.877 423.199 354.944 422.448 355.255 421.785C356.302 419.612 359.286 419.422 361.703 419.533C367.387 419.796 373.624 419.829 378.069 416.251C379.914 414.78 381.975 411.084 384.656 411.786C387.04 412.41 388.034 415.634 390.517 416.349C392.315 416.868 394.179 416.041 396.01 415.693C398.645 415.174 401.345 415.607 404.019 415.627C406.693 415.647 409.597 415.141 411.422 413.191C413.885 410.565 413.483 406.462 413.266 402.864C412.996 398.217 413.312 393.554 414.208 388.985C415.104 384.442 416.48 379.36 413.964 375.467C411.567 371.758 406.601 370.74 403.209 367.897C400.034 365.271 398.355 361.063 395.003 358.627C390.781 355.561 385.044 356.001 379.854 356.533L368.592 357.728C365.687 358.036 362.664 358.384 360.274 360.111C355.96 363.223 355.367 369.69 351.283 373.097C349.466 374.607 347.141 375.356 345.066 376.485C342.991 377.614 340.989 379.4 340.752 381.737C340.555 383.707 341.622 385.525 342.142 387.423C343.373 391.953 341.45 396.614 340.219 401.177C338.987 405.74 338.75 411.281 342.326 414.307C343.051 414.925 343.894 415.397 344.598 416.041C347.016 418.24 347.345 421.949 346.785 425.153"
    fill="#444053" />
  <path
    d="M379.898 437.153C380.175 437.153 380.398 436.258 380.398 435.153C380.398 434.049 380.175 433.153 379.898 433.153C379.622 433.153 379.398 434.049 379.398 435.153C379.398 436.258 379.622 437.153 379.898 437.153Z"
    fill="#444053" />
  <path
    d="M379.898 445.153C380.175 445.153 380.398 444.258 380.398 443.153C380.398 442.049 380.175 441.153 379.898 441.153C379.622 441.153 379.398 442.049 379.398 443.153C379.398 444.258 379.622 445.153 379.898 445.153Z"
    fill="#444053" />
  <path
    d="M365.929 586.707C366.647 585.89 367.123 583.792 367.398 581.022L359.398 571.153C359.398 571.153 362.788 590.287 365.929 586.707Z"
    fill="#AE6E79" />
  <path opacity="0.1"
    d="M374.474 746.49C374.474 746.49 361.666 766.097 321.65 763.996C283.951 762.051 265.551 743.682 266.428 737.199C267.306 730.715 264.025 714.933 272.099 710.395C276.781 707.769 282.943 709.325 287.291 711.102C290.357 712.335 293.866 711.711 296.308 709.5C300.283 705.953 307.695 701.959 319.397 705.104C320.903 705.502 322.491 705.473 323.981 705.02C328.853 703.548 340.45 700.993 348.864 706.667C351.579 708.519 355.13 708.653 357.979 707.01L358.097 706.939C362.026 704.559 380.361 727.039 380.361 727.039C380.361 727.039 381.239 744.331 374.474 746.49Z"
    fill="black" />
  <path
    d="M374.474 747.49C374.474 747.49 361.666 767.097 321.65 764.996C283.951 763.051 265.551 744.682 266.428 738.199C267.306 731.715 264.025 715.933 272.099 711.395C276.781 708.769 282.943 710.325 287.291 712.102C290.357 713.335 293.866 712.711 296.308 710.5C300.283 706.953 307.695 702.959 319.397 706.104C320.903 706.502 322.491 706.473 323.981 706.02C328.853 704.548 340.45 701.993 348.864 707.667C351.579 709.519 355.13 709.653 357.979 708.01L358.097 707.939C362.026 705.559 380.361 728.039 380.361 728.039C380.361 728.039 381.239 745.331 374.474 747.49Z"
    fill="#8D8D8D" />
  <path opacity="0.1"
    d="M321.398 754.153C335.758 754.153 347.398 742.513 347.398 728.153C347.398 713.794 335.758 702.153 321.398 702.153C307.039 702.153 295.398 713.794 295.398 728.153C295.398 742.513 307.039 754.153 321.398 754.153Z"
    fill="black" />
  <path
    d="M321.398 755.153C335.758 755.153 347.398 743.513 347.398 729.153C347.398 714.794 335.758 703.153 321.398 703.153C307.039 703.153 295.398 714.794 295.398 729.153C295.398 743.513 307.039 755.153 321.398 755.153Z"
    fill="#FFB9B9" />
  <path
    d="M314.077 706.769C311.319 707.507 308.601 708.917 307.255 711.234C306.444 712.631 306.16 714.309 304.986 715.471C303.323 717.122 300.519 717.155 298.269 718.082C296.02 719.008 294.535 722.272 296.739 723.303C294.443 723.421 292.741 725.516 292.457 727.599C292.173 729.681 292.972 731.757 293.744 733.741C296.264 740.164 298.975 746.868 304.53 751.437C313.582 758.891 327.226 758.545 339.385 757.755C340.379 757.788 341.363 757.563 342.242 757.103C343.561 756.241 343.726 754.59 343.944 753.14C344.861 746.952 348.252 741.332 350.469 735.425C352.686 729.518 353.596 722.579 349.862 717.35C344.366 709.596 323.327 704.289 314.077 706.769Z"
    fill="#B96B6B" />
  <path opacity="0.1"
    d="M364.398 597.52L363.634 603.82L354.724 605.153C354.724 605.153 353.76 602.94 352.398 599.54L364.255 597.153L364.398 597.52Z"
    fill="black" />
  <path
    d="M374.047 734.153L379.387 727.841L378.318 693.028C378.844 690.517 379.201 687.971 379.387 685.41C379.599 681.709 376.717 673.445 376.717 673.445C377.164 671.791 377.771 670.186 378.529 668.653C379.81 666.042 376.724 660.167 376.724 660.167C376.724 660.167 372.126 644.938 374.047 637.32C375.968 629.702 373.58 625.355 373.58 625.355C373.58 625.355 371.703 616.868 371.915 613.389C372.126 609.91 367.644 606.639 367.644 606.639L364.231 598.153L350.572 600.764V630.139C350.572 630.139 351.424 658.209 350.572 663.653C349.721 669.097 352.276 674.313 352.276 674.313C352.276 674.313 350.784 682.362 352.064 685.41C353.345 688.459 355.906 695.855 355.906 695.855C355.431 698.498 355.578 701.219 356.335 703.793C357.616 707.605 356.335 709.779 356.335 709.779L374.047 734.153Z"
    fill="#8D8D8D" />
  <g opacity="0.1">
    <path
      d="M413.822 387.559C413.083 391.322 412.751 395.151 412.832 398.983C412.888 395.797 413.228 392.622 413.848 389.494C414.424 386.64 415.158 383.567 415.001 380.719C414.759 383.022 414.365 385.307 413.822 387.559V387.559Z"
      fill="black" />
    <path
      d="M344.577 414.096C343.876 413.453 343.038 413.003 342.317 412.393C340.404 410.792 339.598 408.471 339.441 405.964C339.251 409.178 339.919 412.29 342.317 414.321C343.038 414.932 343.876 415.395 344.577 416.025C346.043 417.448 346.892 419.37 346.949 421.393C347.139 418.693 346.582 415.883 344.577 414.096Z"
      fill="black" />
    <path
      d="M342.485 390.092C342.6 388.734 342.48 387.367 342.131 386.048C341.751 384.673 341.07 383.329 340.821 381.947C340.821 382.095 340.769 382.249 340.749 382.41C340.559 384.338 341.62 386.119 342.131 387.977C342.32 388.669 342.438 389.377 342.485 390.092V390.092Z"
      fill="black" />
    <path
      d="M411.05 411.261C409.235 413.19 406.346 413.665 403.686 413.646C401.026 413.627 398.333 413.203 395.719 413.717C393.897 414.077 392.043 414.88 390.255 414.36C387.785 413.659 386.795 410.503 384.43 409.892C381.737 409.198 379.687 412.817 377.878 414.257C373.456 417.728 367.251 417.696 361.597 417.471C359.193 417.362 356.225 417.548 355.19 419.683C354.874 420.33 354.806 421.067 355 421.759L346.994 422.993C346.963 423.64 346.891 424.284 346.777 424.922L355 423.636C354.806 422.944 354.874 422.207 355.19 421.56C356.225 419.425 359.193 419.239 361.597 419.348C367.251 419.605 373.456 419.638 377.878 416.134C379.713 414.694 381.764 411.075 384.43 411.769C386.795 412.373 387.785 415.536 390.255 416.237C392.043 416.738 393.897 415.935 395.719 415.594C398.339 415.08 401.026 415.504 403.686 415.523C406.346 415.543 409.235 415.048 411.05 413.138C412.865 411.229 413.127 408.381 413.015 405.604C412.937 407.758 412.485 409.75 411.05 411.261Z"
      fill="black" />
  </g>
  <g opacity="0.1">
    <path
      d="M350.087 441.374C349.325 440.964 348.525 440.633 347.7 440.383C346.295 439.732 345.181 438.568 344.574 437.121C345.06 439.399 346.289 441.473 348.347 442.364C349.172 442.614 349.972 442.946 350.734 443.355C351.221 443.706 351.615 444.176 351.88 444.722C351.621 443.428 351.148 442.107 350.087 441.374Z"
      fill="black" />
    <path
      d="M361.14 457.441C358.157 458.214 354.262 458.616 352.625 456.034C352.676 456.656 352.852 457.261 353.143 457.811C354.54 460.353 357.957 460.267 360.862 459.64L361.14 457.441Z"
      fill="black" />
    <path
      d="M373.226 459.25C373.64 461.931 371.932 464.606 369.667 466.013C367.403 467.419 364.64 467.809 361.974 467.994C361.55 468.05 361.119 468 360.719 467.848C360.47 468.419 360.576 469.085 360.989 469.546C361.401 470.007 362.042 470.176 362.621 469.975C365.287 469.803 368.03 469.427 370.314 467.994C372.599 466.561 374.307 463.893 373.867 461.205C373.743 460.526 373.527 459.869 373.226 459.25V459.25Z"
      fill="black" />
    <path
      d="M376.098 435.345C376.898 438.598 376.182 442.047 374.156 444.689C372.629 446.578 370.306 448.09 369.976 450.514C369.866 451.628 370.092 452.75 370.623 453.73C370.565 453.32 370.565 452.904 370.623 452.495C370.953 450.071 373.276 448.532 374.803 446.67C377.314 443.573 377.663 439.01 376.098 435.345Z"
      fill="black" />
  </g>
  <g opacity="0.1">
    <path
      d="M298.843 718.84C301.06 717.925 303.832 717.893 305.482 716.245C306.643 715.09 306.923 713.423 307.725 712.042C309.03 709.733 311.736 708.338 314.462 707.605C323.593 705.14 344.41 710.407 349.836 718.042C351.426 720.352 352.293 723.078 352.327 725.878C352.536 722.646 351.662 719.436 349.843 716.751C344.416 709.116 323.619 703.849 314.469 706.314C311.743 707.047 309.056 708.442 307.732 710.751C306.93 712.133 306.649 713.8 305.488 714.954C303.838 716.595 301.066 716.628 298.849 717.549C297.16 718.243 295.908 720.293 296.364 721.668C296.733 720.409 297.639 719.374 298.843 718.84V718.84Z"
      fill="black" />
    <path
      d="M293.104 728.265C293.378 726.189 295.06 724.113 297.336 723.996C296.852 723.796 296.486 723.388 296.339 722.887C294.574 723.539 293.318 725.11 293.078 726.967C293.016 727.495 293.016 728.028 293.078 728.556C293.104 728.459 293.104 728.362 293.104 728.265Z"
      fill="black" />
  </g>
  <rect x="371.398" y="493.153" width="60" height="77" fill="white" />
  <rect opacity="0.1" x="371.398" y="493.153" width="60" height="77" fill="black" />
  <path d="M394.867 506.911L453.379 496.85L466.504 573.124L407.992 583.184L394.867 506.911Z"
    fill="white" />
  <path d="M409.051 558.906L422.798 556.543L425.881 574.462L412.134 576.826L409.051 558.906Z"
    fill="#1C1D21" />
  <path d="M428.074 555.632L441.821 553.268L444.905 571.188L431.158 573.552L428.074 555.632Z"
    fill="#1C1D21" />
  <path d="M407.051 535.29L455.261 527.015L458.354 545.016L410.143 553.291L407.051 535.29Z"
    fill="#1C1D21" />
  <path d="M403.035 513.806L451.246 505.531L451.936 509.547L403.725 517.822L403.035 513.806Z"
    fill="#1C1D21" />
  <path d="M404.617 521.194L452.828 512.918L453.518 516.934L405.307 525.21L404.617 521.194Z"
    fill="#1C1D21" />
  <path
    d="M404.451 471.153C404.451 471.153 377.763 499.014 391.161 506.092C404.559 513.169 413.28 482.543 413.28 482.543L415.398 475.578L404.451 471.153Z"
    fill="#AE6E79" />
  <path opacity="0.1"
    d="M402.752 469.145L399.398 476.692C399.398 476.692 415.941 479.058 419.398 484.153L417.348 470.837L414.916 465.153L402.752 469.145Z"
    fill="black" />
  <path
    d="M402.752 468.145L399.398 475.692C399.398 475.692 415.941 478.058 419.398 483.153L417.348 469.837L414.916 464.153L402.752 468.145Z"
    fill="white" />
  <path
    d="M503.726 605.293L503.398 605.673L503.851 606.013L504.339 605.943L504.398 605.373L503.726 605.293V605.293Z"
    fill="#464A5F" />
  <path opacity="0.1"
    d="M503.726 605.293L503.398 605.673L503.851 606.013L504.339 605.943L504.398 605.373L503.726 605.293V605.293Z"
    fill="black" />
  <path
    d="M504.398 605.814L503.838 606.153L503.398 605.644L503.668 605.229L503.918 605.153L504.398 605.814V605.814Z"
    fill="#9C9CA1" />
  <path opacity="0.1"
    d="M504.398 605.814L503.838 606.153L503.398 605.644L503.668 605.229L503.918 605.153L504.398 605.814V605.814Z"
    fill="black" />
  <path
    d="M567.398 560.143L540.705 521.532C540.228 520.836 539.493 520.359 538.664 520.206C537.835 520.053 536.979 520.236 536.285 520.716L476.783 561.619C475.333 562.615 474.963 564.599 475.954 566.053L502.576 605.153L567.398 560.143Z"
    fill="#9C9CA1" />
  <path opacity="0.1"
    d="M567.398 560.143L540.705 521.532C540.228 520.836 539.493 520.359 538.664 520.206C537.835 520.053 536.979 520.236 536.285 520.716L476.783 561.619C475.333 562.615 474.963 564.599 475.954 566.053L502.576 605.153L567.398 560.143Z"
    fill="black" />
  <path
    d="M568.398 560.122L541.706 521.532C541.227 520.836 540.492 520.359 539.661 520.206C538.831 520.053 537.974 520.237 537.279 520.716L477.784 561.623C476.336 562.619 475.963 564.599 476.95 566.054L503.571 605.153L568.398 560.122Z"
    fill="#9C9CA1" />
  <path
    d="M590.886 567.344L568.849 560.153L504.398 605.544L526.785 612.985C527.801 613.32 528.913 613.149 529.786 612.524L591.067 568.562C591.303 568.428 591.431 568.16 591.391 567.89C591.351 567.619 591.15 567.401 590.886 567.344Z"
    fill="#464A5F" />
  <path opacity="0.1"
    d="M590.886 567.344L568.849 560.153L504.398 605.544L526.785 612.985C527.801 613.32 528.913 613.149 529.786 612.524L591.067 568.562C591.303 568.428 591.431 568.16 591.391 567.89C591.351 567.619 591.15 567.401 590.886 567.344Z"
    fill="black" />
  <path
    d="M590.902 567.352L568.861 560.153L504.398 605.551L526.789 612.98C527.804 613.321 528.918 613.153 529.791 612.525L591.083 568.557C591.309 568.42 591.431 568.157 591.391 567.893C591.351 567.628 591.158 567.414 590.902 567.352Z"
    fill="#464A5F" />
  <g opacity="0.1">
    <path
      d="M557.848 558.841L556.217 556.499C556.013 556.217 555.623 556.145 555.333 556.336L552.908 557.956C552.626 558.156 552.549 558.542 552.733 558.835L554.234 561.144C554.43 561.432 554.816 561.515 555.112 561.333L557.666 559.726C557.955 559.528 558.035 559.137 557.848 558.841V558.841Z"
      fill="black" />
    <path
      d="M553.493 561.86L551.855 559.524C551.652 559.242 551.262 559.17 550.971 559.362L548.553 560.995C548.269 561.192 548.189 561.578 548.371 561.873L549.873 564.183C550.066 564.472 550.453 564.558 550.75 564.378L553.311 562.771C553.458 562.675 553.559 562.525 553.593 562.354C553.628 562.182 553.592 562.004 553.493 561.86Z"
      fill="black" />
    <path
      d="M548.916 565.028L547.278 562.693C547.075 562.411 546.685 562.339 546.394 562.53L543.97 564.163C543.683 564.363 543.606 564.754 543.794 565.048L545.296 567.358C545.491 567.645 545.877 567.728 546.173 567.546L548.728 565.939C548.875 565.845 548.978 565.695 549.013 565.524C549.049 565.352 549.014 565.174 548.916 565.028Z"
      fill="black" />
    <path
      d="M544.282 568.242L542.644 565.9C542.441 565.622 542.056 565.55 541.766 565.738L539.342 567.377C539.059 567.577 538.982 567.963 539.166 568.255L540.668 570.565C540.861 570.851 541.243 570.937 541.539 570.76L544.1 569.147C544.244 569.051 544.345 568.902 544.379 568.732C544.413 568.563 544.378 568.386 544.282 568.242Z"
      fill="black" />
    <path
      d="M539.654 571.45L538.016 569.114C537.812 568.832 537.422 568.76 537.132 568.952L534.714 570.585C534.429 570.782 534.349 571.168 534.532 571.463L536.033 573.772C536.226 574.062 536.613 574.148 536.911 573.968L539.472 572.354C539.616 572.259 539.716 572.11 539.75 571.94C539.785 571.77 539.75 571.594 539.654 571.45Z"
      fill="black" />
    <path
      d="M535.227 574.95L533.193 572.048C533.149 571.983 533.081 571.938 533.004 571.924C532.927 571.909 532.848 571.926 532.783 571.97L529.806 573.981C529.74 574.023 529.694 574.091 529.678 574.168C529.662 574.245 529.678 574.325 529.722 574.391L531.587 577.26C531.676 577.397 531.858 577.437 531.997 577.351L535.143 575.399C535.219 575.356 535.273 575.281 535.289 575.194C535.305 575.108 535.283 575.018 535.227 574.95Z"
      fill="black" />
    <path
      d="M530.599 578.158L528.552 575.256C528.507 575.19 528.438 575.145 528.36 575.13C528.282 575.116 528.201 575.133 528.136 575.178L525.159 577.188C525.026 577.281 524.992 577.463 525.081 577.598L526.946 580.467C526.986 580.536 527.053 580.585 527.131 580.602C527.209 580.62 527.29 580.604 527.356 580.558L530.495 578.606C530.577 578.568 530.636 578.495 530.656 578.407C530.677 578.32 530.656 578.228 530.599 578.158V578.158Z"
      fill="black" />
    <path
      d="M526.499 581.001L524.464 578.125C524.369 577.995 524.188 577.963 524.055 578.054L521.078 580.057C520.942 580.151 520.905 580.335 520.993 580.474L522.859 583.343C522.95 583.477 523.129 583.517 523.268 583.434L526.414 581.482C526.502 581.441 526.564 581.359 526.581 581.263C526.598 581.168 526.567 581.07 526.499 581.001V581.001Z"
      fill="black" />
    <path
      d="M521.911 584.176L519.877 581.274C519.782 581.143 519.601 581.112 519.467 581.202L516.49 583.206C516.424 583.25 516.377 583.319 516.361 583.397C516.346 583.475 516.362 583.556 516.406 583.623L518.271 586.492C518.362 586.626 518.542 586.666 518.681 586.583L521.827 584.631C521.904 584.586 521.957 584.51 521.973 584.423C521.99 584.335 521.967 584.245 521.911 584.176V584.176Z"
      fill="black" />
    <path
      d="M517.466 587.234L515.431 584.332C515.387 584.267 515.32 584.222 515.243 584.207C515.166 584.192 515.086 584.209 515.022 584.254L512.045 586.264C511.978 586.307 511.932 586.374 511.916 586.451C511.9 586.528 511.916 586.609 511.96 586.674L513.826 589.543C513.914 589.68 514.097 589.721 514.235 589.634L517.381 587.682C517.458 587.639 517.511 587.564 517.527 587.478C517.544 587.391 517.521 587.302 517.466 587.234Z"
      fill="black" />
    <path
      d="M513.017 590.343L511.002 587.435C510.907 587.305 510.726 587.273 510.592 587.364L507.615 589.367C507.549 589.411 507.502 589.48 507.486 589.558C507.471 589.636 507.487 589.717 507.531 589.784L509.396 592.653C509.487 592.787 509.667 592.827 509.806 592.744L512.952 590.792C513.025 590.745 513.075 590.669 513.087 590.583C513.1 590.496 513.074 590.409 513.017 590.343V590.343Z"
      fill="black" />
    <path
      d="M508.571 593.421L506.537 590.519C506.493 590.454 506.425 590.409 506.348 590.394C506.271 590.38 506.191 590.396 506.127 590.441L503.15 592.438C503.084 592.481 503.038 592.548 503.022 592.626C503.006 592.703 503.022 592.783 503.066 592.848L504.931 595.717C505.02 595.855 505.202 595.895 505.341 595.808L508.487 593.857C508.559 593.813 508.609 593.741 508.625 593.657C508.642 593.574 508.622 593.488 508.571 593.421Z"
      fill="black" />
    <path
      d="M554.923 554.606L553.285 552.264C553.081 551.981 552.692 551.91 552.401 552.101L550.003 553.74C549.718 553.938 549.638 554.324 549.821 554.619L551.322 556.928C551.517 557.216 551.904 557.299 552.2 557.117L554.761 555.51C555.055 555.305 555.127 554.9 554.923 554.606Z"
      fill="black" />
    <path
      d="M548.521 545.348L546.883 542.993C546.68 542.714 546.295 542.643 546.005 542.83L543.581 544.463C543.296 544.66 543.216 545.047 543.399 545.341L544.9 547.651C545.093 547.94 545.48 548.026 545.778 547.846L548.339 546.239C548.631 546.041 548.712 545.645 548.521 545.348Z"
      fill="black" />
    <path
      d="M550.563 557.625L548.925 555.289C548.722 555.011 548.337 554.939 548.048 555.126L545.623 556.759C545.341 556.959 545.263 557.345 545.448 557.638L546.943 559.947C547.136 560.237 547.523 560.323 547.82 560.142L550.381 558.535C550.527 558.44 550.629 558.29 550.663 558.118C550.697 557.947 550.661 557.769 550.563 557.625Z"
      fill="black" />
    <path
      d="M545.985 560.793L544.347 558.457C544.143 558.175 543.753 558.103 543.463 558.295L541.045 559.908C540.756 560.106 540.675 560.497 540.863 560.793L542.364 563.103C542.559 563.39 542.946 563.473 543.242 563.291L545.803 561.684C546.095 561.486 546.176 561.09 545.985 560.793Z"
      fill="black" />
    <path
      d="M541.352 564.007L539.721 561.665C539.517 561.383 539.127 561.311 538.837 561.502L536.412 563.161C536.13 563.361 536.052 563.747 536.237 564.04L537.738 566.349C537.933 566.637 538.32 566.72 538.616 566.538L541.17 564.931C541.32 564.835 541.424 564.682 541.459 564.508C541.493 564.333 541.455 564.152 541.352 564.007Z"
      fill="black" />
    <path
      d="M544.263 548.516L542.625 546.18C542.422 545.902 542.037 545.831 541.747 546.018L539.323 547.651C539.038 547.848 538.958 548.235 539.141 548.529L540.642 550.839C540.836 551.128 541.222 551.214 541.52 551.034L544.081 549.427C544.227 549.331 544.329 549.181 544.363 549.01C544.397 548.839 544.361 548.661 544.263 548.516Z"
      fill="black" />
    <path
      d="M539.689 551.691L538.051 549.349C537.847 549.067 537.457 548.995 537.167 549.186L534.749 550.8C534.464 550.997 534.384 551.384 534.567 551.678L536.068 553.988C536.263 554.275 536.65 554.358 536.946 554.176L539.507 552.569C539.792 552.372 539.872 551.986 539.689 551.691V551.691Z"
      fill="black" />
    <path
      d="M535.055 554.899L533.417 552.563C533.216 552.282 532.831 552.208 532.54 552.394L530.115 554.053C529.833 554.252 529.756 554.638 529.94 554.931L531.441 557.241C531.634 557.53 532.021 557.616 532.319 557.436L534.873 555.822C535.023 555.727 535.128 555.574 535.162 555.399C535.196 555.225 535.158 555.044 535.055 554.899Z"
      fill="black" />
    <path
      d="M536.723 567.214L535.085 564.879C534.884 564.598 534.499 564.524 534.208 564.71L531.803 566.349C531.52 566.549 531.443 566.935 531.627 567.227L533.103 569.537C533.296 569.823 533.678 569.909 533.974 569.732L536.535 568.119C536.68 568.024 536.782 567.876 536.817 567.706C536.853 567.536 536.819 567.359 536.723 567.214Z"
      fill="black" />
    <path
      d="M532.095 570.422L530.457 568.086C530.253 567.804 529.864 567.732 529.573 567.924L527.155 569.557C526.87 569.754 526.79 570.14 526.973 570.435L528.475 572.745C528.668 573.034 529.054 573.12 529.352 572.94L531.913 571.333C532.059 571.237 532.161 571.087 532.195 570.916C532.229 570.744 532.193 570.566 532.095 570.422Z"
      fill="black" />
    <path
      d="M527.669 573.922L525.634 571.02C525.591 570.955 525.523 570.91 525.446 570.896C525.369 570.881 525.289 570.898 525.225 570.942L522.248 572.953C522.181 572.995 522.135 573.063 522.119 573.14C522.103 573.217 522.119 573.297 522.163 573.363L524.029 576.232C524.07 576.299 524.137 576.347 524.214 576.364C524.291 576.381 524.372 576.366 524.438 576.323L527.584 574.371C527.661 574.328 527.714 574.253 527.73 574.166C527.747 574.08 527.724 573.99 527.669 573.922Z"
      fill="black" />
    <path
      d="M523.566 576.765L521.532 573.857C521.437 573.727 521.256 573.695 521.122 573.785L518.152 575.789C518.016 575.883 517.979 576.067 518.067 576.206L519.933 579.075C520.024 579.209 520.203 579.249 520.342 579.166L523.488 577.214C523.568 577.173 523.623 577.097 523.639 577.009C523.654 576.921 523.627 576.831 523.566 576.765V576.765Z"
      fill="black" />
    <path
      d="M518.977 579.94L516.943 577.039C516.848 576.908 516.667 576.876 516.533 576.967L513.556 578.971C513.49 579.013 513.444 579.081 513.428 579.158C513.412 579.235 513.428 579.315 513.472 579.381L515.337 582.256C515.428 582.391 515.608 582.431 515.747 582.347L518.893 580.396C518.97 580.351 519.023 580.275 519.039 580.187C519.056 580.1 519.033 580.01 518.977 579.94Z"
      fill="black" />
    <path
      d="M514.532 583.024L512.497 580.122C512.454 580.057 512.386 580.012 512.309 579.997C512.232 579.983 512.152 580 512.088 580.044L509.111 582.029C509.045 582.071 508.998 582.139 508.983 582.216C508.967 582.293 508.983 582.373 509.026 582.438L510.892 585.308C510.981 585.445 511.163 585.485 511.301 585.399L514.447 583.447C514.516 583.403 514.564 583.333 514.58 583.253C514.596 583.174 514.578 583.091 514.532 583.024V583.024Z"
      fill="black" />
    <path
      d="M542.938 556.388L541.3 554.053C541.097 553.774 540.712 553.703 540.423 553.89L537.998 555.53C537.716 555.729 537.638 556.115 537.823 556.408L539.324 558.718C539.519 559.001 539.901 559.084 540.195 558.906L542.756 557.299C542.902 557.204 543.004 557.053 543.038 556.882C543.072 556.711 543.036 556.533 542.938 556.388Z"
      fill="black" />
    <path
      d="M538.302 559.602L536.664 557.26C536.46 556.978 536.071 556.906 535.78 557.098L533.362 558.737C533.077 558.935 532.997 559.321 533.18 559.615L534.682 561.925C534.875 562.215 535.261 562.301 535.559 562.12L538.12 560.507C538.264 560.411 538.365 560.262 538.399 560.092C538.433 559.923 538.398 559.746 538.302 559.602V559.602Z"
      fill="black" />
    <path
      d="M533.683 562.81L532.045 560.474C531.841 560.192 531.452 560.12 531.161 560.311L528.736 561.945C528.454 562.144 528.377 562.53 528.561 562.823L530.062 565.132C530.256 565.422 530.642 565.508 530.94 565.328L533.494 563.714C533.64 563.62 533.741 563.471 533.777 563.301C533.812 563.131 533.778 562.955 533.683 562.81V562.81Z"
      fill="black" />
    <path
      d="M529.048 566.017L527.41 563.682C527.206 563.403 526.821 563.332 526.532 563.519L524.108 565.152C523.825 565.352 523.748 565.738 523.932 566.03L525.434 568.366C525.626 568.652 526.008 568.738 526.305 568.561L528.866 566.954C529.019 566.859 529.126 566.703 529.161 566.526C529.195 566.348 529.154 566.164 529.048 566.017Z"
      fill="black" />
    <path
      d="M524.654 569.518L522.62 566.616C522.576 566.551 522.509 566.506 522.432 566.491C522.355 566.476 522.275 566.493 522.21 566.538L519.233 568.548C519.099 568.639 519.061 568.821 519.149 568.958L521.014 571.834C521.057 571.9 521.124 571.946 521.201 571.962C521.279 571.978 521.359 571.962 521.424 571.918L524.57 569.966C524.646 569.923 524.7 569.848 524.716 569.762C524.732 569.675 524.71 569.586 524.654 569.518Z"
      fill="black" />
    <path
      d="M520.526 572.361L518.492 569.453C518.394 569.321 518.211 569.29 518.076 569.381L515.105 571.385C514.969 571.478 514.932 571.662 515.021 571.801L516.886 574.67C516.975 574.808 517.157 574.848 517.296 574.761L520.442 572.81C520.518 572.766 520.572 572.691 520.588 572.605C520.604 572.518 520.582 572.429 520.526 572.361V572.361Z"
      fill="black" />
    <path
      d="M515.937 575.523L513.902 572.614C513.805 572.483 513.622 572.452 513.486 572.543L510.509 574.547C510.376 574.642 510.34 574.824 510.425 574.963L512.297 577.832C512.385 577.969 512.568 578.01 512.706 577.923L515.846 575.972C515.925 575.931 515.981 575.856 515.999 575.769C516.017 575.682 515.994 575.591 515.937 575.523V575.523Z"
      fill="black" />
    <path
      d="M511.492 578.619L509.458 575.718C509.413 575.652 509.344 575.607 509.266 575.592C509.188 575.578 509.107 575.595 509.042 575.64L506.065 577.65C505.932 577.743 505.898 577.925 505.987 578.06L507.852 580.929C507.893 580.998 507.96 581.047 508.037 581.064C508.115 581.081 508.196 581.066 508.262 581.02L511.401 579.068C511.481 579.028 511.537 578.953 511.555 578.866C511.573 578.779 511.55 578.688 511.492 578.619Z"
      fill="black" />
    <path
      d="M510.087 586.101L508.052 583.2C507.957 583.069 507.776 583.038 507.643 583.128L504.666 585.132C504.599 585.175 504.553 585.242 504.537 585.319C504.521 585.396 504.537 585.477 504.581 585.542L506.447 588.418C506.537 588.552 506.717 588.592 506.856 588.509L510.002 586.557C510.079 586.512 510.132 586.436 510.149 586.348C510.165 586.261 510.142 586.171 510.087 586.101V586.101Z"
      fill="black" />
    <path
      d="M505.641 589.185L503.607 586.284C503.563 586.218 503.495 586.173 503.418 586.159C503.341 586.144 503.262 586.161 503.197 586.206L500.22 588.216C500.154 588.258 500.108 588.326 500.092 588.403C500.076 588.48 500.092 588.56 500.136 588.626L502.001 591.495C502.09 591.632 502.272 591.673 502.411 591.586L505.557 589.634C505.633 589.591 505.687 589.516 505.703 589.429C505.719 589.343 505.697 589.254 505.641 589.185Z"
      fill="black" />
    <path
      d="M512.621 570.747L510.671 568.015C510.544 567.838 510.299 567.795 510.119 567.917L507.311 569.81C507.223 569.869 507.161 569.96 507.141 570.064C507.12 570.168 507.141 570.275 507.2 570.363L508.955 573.063C509.01 573.153 509.099 573.217 509.202 573.241C509.305 573.264 509.413 573.245 509.501 573.187L512.472 571.32C512.571 571.267 512.643 571.175 512.672 571.066C512.7 570.957 512.682 570.842 512.621 570.747V570.747Z"
      fill="black" />
    <path
      d="M508.174 573.831L506.257 571.099C506.198 571.011 506.106 570.951 506.002 570.932C505.899 570.912 505.791 570.935 505.704 570.994L502.896 572.92C502.809 572.977 502.747 573.067 502.727 573.17C502.706 573.273 502.727 573.38 502.786 573.467L504.541 576.173C504.66 576.355 504.901 576.41 505.087 576.297L508.057 574.43C508.159 574.371 508.23 574.272 508.253 574.157C508.275 574.042 508.247 573.923 508.174 573.831V573.831Z"
      fill="black" />
    <path
      d="M503.73 576.915L501.812 574.176C501.685 573.999 501.44 573.956 501.26 574.078L498.452 575.972C498.363 576.03 498.302 576.121 498.281 576.225C498.26 576.329 498.282 576.437 498.341 576.525L500.096 579.225C500.151 579.315 500.24 579.379 500.343 579.402C500.446 579.425 500.554 579.406 500.642 579.348L503.613 577.481C503.706 577.424 503.771 577.33 503.793 577.223C503.815 577.116 503.792 577.005 503.73 576.915Z"
      fill="black" />
    <path
      d="M499.343 580.077L497.308 577.169C497.213 577.038 497.032 577.007 496.899 577.097L493.922 579.101C493.786 579.194 493.749 579.378 493.837 579.517L495.703 582.387C495.793 582.521 495.973 582.561 496.112 582.478L499.258 580.526C499.338 580.486 499.395 580.411 499.412 580.322C499.428 580.234 499.403 580.143 499.343 580.077Z"
      fill="black" />
    <path
      d="M551.955 550.052L550.193 547.547C549.988 547.267 549.598 547.198 549.309 547.391L542.432 552.212C542.156 552.413 542.082 552.794 542.263 553.083L543.921 555.647C544.017 555.79 544.167 555.889 544.336 555.922C544.506 555.955 544.681 555.919 544.824 555.822L551.805 550.936C552.083 550.729 552.149 550.339 551.955 550.052Z"
      fill="black" />
    <path
      d="M507.03 581.606L504.872 578.554C504.828 578.488 504.758 578.443 504.679 578.43C504.601 578.416 504.52 578.436 504.456 578.483L497.033 583.688C496.901 583.778 496.867 583.958 496.955 584.091L498.983 587.233C499.027 587.302 499.097 587.35 499.176 587.366C499.256 587.382 499.339 587.364 499.406 587.318L506.952 582.029C507.09 581.933 507.124 581.744 507.03 581.606V581.606Z"
      fill="black" />
    <path
      d="M530.647 558.269L528.658 555.354C528.565 555.221 528.384 555.187 528.249 555.276L511.765 566.414C511.63 566.505 511.592 566.687 511.68 566.824L513.715 569.947C513.759 570.016 513.828 570.063 513.908 570.079C513.988 570.095 514.07 570.078 514.137 570.032L530.569 558.685C530.635 558.64 530.68 558.571 530.695 558.493C530.709 558.415 530.692 558.334 530.647 558.269Z"
      fill="black" />
  </g>
  <path
    d="M558.296 558.653L556.759 556.411C556.568 556.141 556.202 556.073 555.93 556.256L553.661 557.825C553.394 558.014 553.319 558.384 553.49 558.666L554.899 560.876C555.08 561.153 555.443 561.236 555.722 561.063L558.125 559.519C558.26 559.427 558.354 559.285 558.386 559.122C558.418 558.96 558.386 558.791 558.296 558.653V558.653Z"
    fill="#464A5F" />
  <path
    d="M553.293 561.649L551.757 559.409C551.566 559.142 551.206 559.074 550.934 559.253L548.661 560.819C548.394 561.008 548.319 561.379 548.49 561.661L549.898 563.876C550.079 564.153 550.442 564.236 550.721 564.063L553.122 562.522C553.259 562.43 553.355 562.286 553.387 562.122C553.419 561.958 553.385 561.787 553.293 561.649V561.649Z"
    fill="#464A5F" />
  <path
    d="M549.293 564.649L547.757 562.412C547.566 562.141 547.201 562.073 546.928 562.256L544.661 563.826C544.394 564.016 544.319 564.386 544.49 564.668L545.898 566.88C546.081 567.156 546.443 567.235 546.721 567.061L549.122 565.522C549.259 565.43 549.355 565.286 549.387 565.122C549.419 564.958 549.385 564.788 549.293 564.649V564.649Z"
    fill="#464A5F" />
  <path
    d="M544.279 568.636L542.75 566.407C542.56 566.142 542.2 566.074 541.93 566.252L539.665 567.813C539.531 567.906 539.438 568.05 539.409 568.213C539.379 568.376 539.415 568.544 539.507 568.68L540.91 570.878C541.09 571.153 541.452 571.235 541.73 571.064L544.116 569.528C544.258 569.436 544.357 569.288 544.388 569.119C544.419 568.949 544.38 568.775 544.279 568.636Z"
    fill="#464A5F" />
  <path
    d="M540.296 570.649L538.758 568.409C538.567 568.142 538.205 568.074 537.934 568.253L535.657 569.819C535.392 570.01 535.319 570.38 535.492 570.661L536.896 572.876C537.077 573.153 537.441 573.236 537.72 573.063L540.125 571.516C540.26 571.424 540.354 571.281 540.386 571.119C540.418 570.956 540.386 570.787 540.296 570.649Z"
    fill="#464A5F" />
  <path
    d="M536.339 574.92L534.53 572.272C534.491 572.212 534.431 572.171 534.362 572.158C534.294 572.145 534.223 572.16 534.165 572.201L531.518 574.036C531.459 574.075 531.418 574.136 531.404 574.207C531.39 574.277 531.404 574.35 531.443 574.41L533.102 577.029C533.181 577.154 533.343 577.191 533.466 577.112L536.264 575.33C536.332 575.291 536.379 575.222 536.394 575.143C536.408 575.064 536.388 574.983 536.339 574.92Z"
    fill="#464A5F" />
  <path
    d="M530.342 577.918L528.531 575.272C528.492 575.212 528.43 575.171 528.361 575.158C528.291 575.145 528.22 575.16 528.161 575.201L525.518 577.034C525.459 577.073 525.418 577.135 525.404 577.205C525.39 577.275 525.404 577.349 525.443 577.408L527.103 580.031C527.141 580.091 527.201 580.133 527.269 580.148C527.338 580.162 527.409 580.148 527.467 580.108L530.267 578.328C530.333 578.287 530.379 578.219 530.394 578.14C530.408 578.062 530.389 577.981 530.342 577.918V577.918Z"
    fill="#464A5F" />
  <path
    d="M527.351 580.935L525.536 578.266C525.452 578.147 525.29 578.118 525.171 578.201L522.517 580.015C522.396 580.101 522.362 580.27 522.441 580.397L524.105 583.03C524.186 583.153 524.346 583.19 524.47 583.114L527.275 581.323C527.337 581.283 527.379 581.218 527.393 581.145C527.407 581.072 527.392 580.996 527.351 580.935Z"
    fill="#464A5F" />
  <path
    d="M522.325 583.898L520.521 581.266C520.437 581.147 520.276 581.118 520.158 581.2L517.518 583.03C517.459 583.07 517.418 583.133 517.404 583.204C517.39 583.276 517.404 583.35 517.443 583.411L519.097 586.031C519.178 586.153 519.337 586.19 519.461 586.114L522.25 584.331C522.326 584.293 522.38 584.22 522.394 584.134C522.409 584.049 522.383 583.961 522.325 583.898V583.898Z"
    fill="#464A5F" />
  <path
    d="M517.339 586.919L515.53 584.272C515.491 584.212 515.431 584.171 515.362 584.158C515.294 584.145 515.223 584.16 515.165 584.201L512.518 586.035C512.459 586.074 512.418 586.135 512.404 586.206C512.39 586.276 512.404 586.349 512.443 586.409L514.102 589.026C514.139 589.088 514.198 589.131 514.267 589.147C514.335 589.163 514.407 589.149 514.466 589.11L517.264 587.329C517.332 587.289 517.379 587.221 517.394 587.142C517.408 587.063 517.388 586.982 517.339 586.919Z"
    fill="#464A5F" />
  <path
    d="M512.339 589.922L510.529 587.266C510.445 587.147 510.283 587.118 510.165 587.2L507.516 589.03C507.396 589.116 507.362 589.284 507.441 589.411L509.101 592.031C509.181 592.153 509.341 592.19 509.465 592.114L512.264 590.331C512.332 590.292 512.379 590.223 512.394 590.144C512.408 590.065 512.388 589.984 512.339 589.922Z"
    fill="#464A5F" />
  <path
    d="M508.339 593.919L506.53 591.272C506.491 591.212 506.431 591.171 506.362 591.158C506.294 591.145 506.223 591.16 506.165 591.201L503.518 593.035C503.459 593.074 503.418 593.135 503.404 593.206C503.39 593.276 503.404 593.349 503.443 593.409L505.102 596.026C505.139 596.088 505.198 596.131 505.267 596.147C505.335 596.163 505.407 596.149 505.466 596.11L508.264 594.329C508.332 594.289 508.379 594.221 508.394 594.142C508.408 594.063 508.388 593.982 508.339 593.919V593.919Z"
    fill="#464A5F" />
  <path
    d="M555.296 553.652L553.758 551.409C553.567 551.142 553.205 551.074 552.934 551.253L550.657 552.823C550.392 553.014 550.319 553.384 550.492 553.664L551.896 555.876C552.077 556.153 552.441 556.236 552.72 556.063L555.125 554.518C555.26 554.426 555.354 554.284 555.386 554.121C555.418 553.959 555.386 553.79 555.296 553.652V553.652Z"
    fill="#464A5F" />
  <path
    d="M549.293 544.65L547.756 542.409C547.565 542.142 547.204 542.074 546.932 542.253L544.657 543.82C544.392 544.011 544.319 544.382 544.492 544.663L545.901 546.878C546.082 547.153 546.441 547.235 546.719 547.066L549.122 545.524C549.259 545.432 549.354 545.288 549.387 545.124C549.419 544.959 549.385 544.789 549.293 544.65Z"
    fill="#464A5F" />
  <path
    d="M551.298 557.663L549.759 555.409C549.568 555.142 549.207 555.074 548.935 555.253L546.657 556.82C546.392 557.011 546.319 557.382 546.492 557.663L547.903 559.878C548.084 560.153 548.443 560.235 548.721 560.066L551.127 558.524C551.406 558.333 551.482 557.949 551.298 557.663Z"
    fill="#464A5F" />
  <path
    d="M546.285 560.648L544.768 558.409C544.576 558.142 544.214 558.074 543.942 558.253L541.66 559.818C541.391 560.01 541.318 560.384 541.495 560.667L542.902 562.88C543.086 563.156 543.449 563.235 543.728 563.061L546.138 561.521C546.271 561.425 546.362 561.279 546.39 561.116C546.417 560.952 546.379 560.783 546.285 560.648Z"
    fill="#464A5F" />
  <path
    d="M542.296 563.653L540.759 561.411C540.568 561.141 540.202 561.073 539.93 561.256L537.661 562.825C537.394 563.014 537.319 563.384 537.49 563.666L538.899 565.876C539.08 566.153 539.443 566.236 539.722 566.063L542.125 564.519C542.26 564.427 542.354 564.285 542.386 564.122C542.418 563.96 542.386 563.791 542.296 563.653Z"
    fill="#464A5F" />
  <path
    d="M544.298 547.663L542.759 545.409C542.568 545.142 542.207 545.074 541.935 545.253L539.657 546.82C539.392 547.011 539.319 547.382 539.492 547.663L540.903 549.878C541.084 550.153 541.443 550.235 541.721 550.066L544.127 548.524C544.406 548.333 544.482 547.949 544.298 547.663V547.663Z"
    fill="#464A5F" />
  <path
    d="M540.296 551.652L538.759 549.409C538.568 549.142 538.207 549.074 537.936 549.253L535.661 550.823C535.394 551.012 535.319 551.382 535.49 551.664L536.899 553.876C537.08 554.153 537.443 554.236 537.722 554.063L540.125 552.518C540.26 552.426 540.354 552.284 540.386 552.121C540.418 551.959 540.386 551.79 540.296 551.652Z"
    fill="#464A5F" />
  <path
    d="M536.295 554.647L534.758 552.411C534.567 552.141 534.202 552.073 533.929 552.256L531.661 553.819C531.394 554.008 531.319 554.378 531.49 554.659L532.899 556.876C533.08 557.153 533.443 557.236 533.722 557.063L536.118 555.519C536.256 555.428 536.352 555.285 536.386 555.121C536.419 554.957 536.386 554.786 536.295 554.647Z"
    fill="#464A5F" />
  <path
    d="M536.301 566.656L534.761 564.41C534.57 564.142 534.208 564.074 533.936 564.253L531.657 565.812C531.392 566.003 531.319 566.375 531.492 566.656L532.904 568.878C533.085 569.153 533.444 569.235 533.723 569.065L536.13 567.514C536.405 567.323 536.481 566.942 536.301 566.656Z"
    fill="#464A5F" />
  <path
    d="M532.278 569.633L530.747 567.408C530.557 567.142 530.197 567.074 529.927 567.253L527.66 568.84C527.394 569.028 527.319 569.396 527.49 569.677L528.894 571.877C529.074 572.153 529.436 572.235 529.714 572.063L532.108 570.532C532.254 570.441 532.355 570.292 532.387 570.121C532.42 569.95 532.38 569.773 532.278 569.633Z"
    fill="#464A5F" />
  <path
    d="M528.334 573.919L526.518 571.272C526.479 571.212 526.418 571.171 526.35 571.158C526.281 571.145 526.21 571.16 526.152 571.201L523.518 573.035C523.459 573.074 523.418 573.135 523.404 573.206C523.39 573.276 523.404 573.349 523.443 573.409L525.108 576.026C525.145 576.088 525.205 576.131 525.274 576.147C525.342 576.163 525.415 576.149 525.474 576.11L528.281 574.329C528.345 574.284 528.386 574.214 528.396 574.136C528.406 574.058 528.383 573.979 528.334 573.919V573.919Z"
    fill="#464A5F" />
  <path
    d="M523.338 576.921L521.53 574.266C521.443 574.146 521.28 574.118 521.16 574.201L518.514 576.03C518.396 576.117 518.363 576.283 518.439 576.41L520.103 579.029C520.182 579.154 520.344 579.191 520.467 579.112L523.257 577.33C523.327 577.293 523.377 577.225 523.393 577.145C523.409 577.066 523.389 576.983 523.338 576.921V576.921Z"
    fill="#464A5F" />
  <path
    d="M519.332 578.922L517.525 576.266C517.441 576.147 517.28 576.118 517.161 576.2L514.516 578.03C514.396 578.116 514.362 578.284 514.441 578.411L516.098 581.031C516.179 581.153 516.339 581.19 516.462 581.114L519.257 579.331C519.329 579.295 519.379 579.226 519.394 579.146C519.409 579.065 519.386 578.982 519.332 578.922V578.922Z"
    fill="#464A5F" />
  <path
    d="M514.33 582.92L512.534 580.272C512.495 580.212 512.435 580.171 512.366 580.158C512.298 580.145 512.227 580.16 512.169 580.201L509.516 582.036C509.396 582.119 509.362 582.285 509.441 582.41L511.103 585.029C511.182 585.154 511.345 585.191 511.468 585.112L514.272 583.33C514.339 583.289 514.385 583.219 514.396 583.139C514.407 583.06 514.383 582.98 514.33 582.92V582.92Z"
    fill="#464A5F" />
  <path
    d="M543.296 555.655L541.764 553.412C541.572 553.141 541.207 553.073 540.934 553.256L538.657 554.826C538.392 555.018 538.319 555.387 538.492 555.668L539.902 557.88C540.085 558.156 540.448 558.235 540.726 558.061L543.125 556.522C543.26 556.43 543.354 556.287 543.386 556.125C543.418 555.962 543.386 555.793 543.296 555.655Z"
    fill="#464A5F" />
  <path
    d="M538.296 559.652L536.758 557.413C536.569 557.144 536.207 557.073 535.934 557.251L533.657 558.823C533.392 559.014 533.319 559.384 533.492 559.665L534.902 561.879C535.083 562.153 535.442 562.235 535.72 562.066L538.125 560.519C538.26 560.428 538.354 560.285 538.386 560.122C538.418 559.959 538.386 559.79 538.296 559.652V559.652Z"
    fill="#464A5F" />
  <path
    d="M534.282 562.647L532.722 560.412C532.53 560.141 532.163 560.072 531.89 560.256L529.662 561.817C529.394 562.006 529.319 562.377 529.491 562.659L530.904 564.876C531.086 565.153 531.45 565.236 531.731 565.063L534.142 563.521C534.274 563.424 534.364 563.278 534.39 563.114C534.417 562.95 534.378 562.782 534.282 562.647V562.647Z"
    fill="#464A5F" />
  <path
    d="M529.293 565.65L527.756 563.409C527.565 563.142 527.204 563.074 526.932 563.253L524.657 564.82C524.392 565.011 524.319 565.382 524.492 565.663L525.901 567.878C526.082 568.153 526.441 568.235 526.719 568.066L529.122 566.524C529.259 566.432 529.354 566.288 529.387 566.124C529.419 565.959 529.385 565.789 529.293 565.65Z"
    fill="#464A5F" />
  <path
    d="M525.341 569.918L523.532 567.272C523.492 567.212 523.431 567.171 523.362 567.158C523.292 567.145 523.22 567.16 523.162 567.201L520.516 569.034C520.396 569.117 520.363 569.283 520.441 569.408L522.099 572.03C522.138 572.091 522.199 572.133 522.268 572.148C522.338 572.162 522.41 572.148 522.469 572.107L525.26 570.328C525.329 570.289 525.378 570.221 525.393 570.142C525.409 570.063 525.39 569.981 525.341 569.918Z"
    fill="#464A5F" />
  <path
    d="M520.333 571.922L518.519 569.272C518.48 569.213 518.419 569.171 518.351 569.158C518.282 569.145 518.211 569.16 518.154 569.201L515.517 571.031C515.396 571.116 515.362 571.284 515.441 571.411L517.105 574.031C517.186 574.153 517.346 574.19 517.47 574.114L520.275 572.332C520.34 572.289 520.385 572.219 520.396 572.14C520.407 572.062 520.384 571.982 520.333 571.922Z"
    fill="#464A5F" />
  <path
    d="M516.339 575.921L514.529 573.266C514.442 573.146 514.279 573.118 514.159 573.201L511.516 575.03C511.396 575.115 511.362 575.283 511.441 575.41L513.101 578.029C513.18 578.154 513.342 578.191 513.465 578.112L516.264 576.33C516.332 576.291 516.379 576.222 516.394 576.143C516.408 576.064 516.388 575.983 516.339 575.921Z"
    fill="#464A5F" />
  <path
    d="M512.342 577.918L510.531 575.272C510.492 575.212 510.43 575.171 510.361 575.158C510.291 575.145 510.22 575.16 510.161 575.201L507.518 577.034C507.459 577.073 507.418 577.135 507.404 577.205C507.39 577.275 507.404 577.349 507.443 577.408L509.103 580.031C509.141 580.091 509.201 580.133 509.269 580.148C509.338 580.162 509.409 580.148 509.467 580.108L512.267 578.328C512.333 578.287 512.379 578.219 512.394 578.14C512.408 578.062 512.389 577.981 512.342 577.918V577.918Z"
    fill="#464A5F" />
  <path
    d="M510.338 585.922L508.53 583.266C508.444 583.146 508.281 583.118 508.161 583.201L505.516 585.031C505.396 585.116 505.362 585.284 505.441 585.411L507.098 588.031C507.179 588.153 507.339 588.19 507.462 588.114L510.257 586.332C510.327 586.295 510.378 586.227 510.393 586.147C510.409 586.067 510.389 585.984 510.338 585.922Z"
    fill="#464A5F" />
  <path
    d="M505.338 588.919L503.53 586.272C503.49 586.213 503.429 586.171 503.36 586.158C503.29 586.145 503.219 586.16 503.161 586.201L500.516 588.035C500.396 588.118 500.363 588.284 500.441 588.409L502.098 591.026C502.136 591.088 502.196 591.131 502.266 591.147C502.335 591.163 502.408 591.149 502.468 591.109L505.257 589.329C505.327 589.292 505.378 589.224 505.393 589.144C505.409 589.064 505.389 588.982 505.338 588.919V588.919Z"
    fill="#464A5F" />
  <path
    d="M512.339 569.843L510.608 567.308C510.493 567.144 510.272 567.104 510.109 567.218L507.557 568.97C507.394 569.084 507.35 569.311 507.457 569.482L509.041 571.986C509.151 572.156 509.373 572.204 509.54 572.095L512.215 570.367C512.302 570.317 512.365 570.232 512.388 570.132C512.412 570.033 512.394 569.928 512.339 569.843Z"
    fill="#464A5F" />
  <path
    d="M508.334 573.842L506.598 571.314C506.545 571.233 506.462 571.178 506.368 571.16C506.274 571.142 506.177 571.163 506.098 571.218L503.557 572.975C503.394 573.087 503.35 573.313 503.457 573.481L505.045 575.984C505.155 576.153 505.376 576.204 505.545 576.099L508.234 574.371C508.316 574.315 508.373 574.228 508.392 574.128C508.41 574.028 508.39 573.925 508.334 573.842V573.842Z"
    fill="#464A5F" />
  <path
    d="M504.34 576.843L502.584 574.307C502.471 574.145 502.252 574.105 502.092 574.217L499.557 575.969C499.394 576.084 499.35 576.311 499.457 576.481L501.038 578.986C501.147 579.156 501.369 579.204 501.536 579.095L504.211 577.366C504.299 577.318 504.363 577.233 504.388 577.134C504.412 577.034 504.395 576.929 504.34 576.843V576.843Z"
    fill="#464A5F" />
  <path
    d="M499.339 579.921L497.53 577.266C497.443 577.146 497.28 577.118 497.16 577.201L494.512 579.03C494.394 579.117 494.363 579.285 494.443 579.41L496.102 582.029C496.181 582.154 496.343 582.191 496.466 582.112L499.264 580.33C499.332 580.291 499.379 580.222 499.394 580.143C499.408 580.064 499.388 579.983 499.339 579.921Z"
    fill="#464A5F" />
  <path
    d="M553.293 550.041L551.542 547.429C551.334 547.138 550.941 547.066 550.65 547.267L543.669 552.281C543.39 552.49 543.315 552.887 543.499 553.188L545.178 555.854C545.275 556.004 545.426 556.107 545.597 556.141C545.768 556.175 545.946 556.138 546.09 556.037L553.129 550.955C553.41 550.743 553.482 550.343 553.293 550.041Z"
    fill="#464A5F" />
  <path
    d="M507.344 581.353L505.224 578.283C505.181 578.216 505.112 578.171 505.035 578.158C504.958 578.144 504.879 578.163 504.816 578.211L497.524 583.447C497.393 583.541 497.359 583.723 497.447 583.86L499.446 587.014C499.489 587.083 499.557 587.131 499.635 587.147C499.714 587.164 499.795 587.146 499.861 587.1L507.274 581.778C507.407 581.68 507.438 581.49 507.344 581.353V581.353Z"
    fill="#464A5F" />
  <path
    d="M531.335 558.213L529.389 555.287C529.296 555.15 529.112 555.112 528.974 555.202L512.533 566.444C512.466 566.487 512.42 566.555 512.404 566.633C512.389 566.711 512.404 566.792 512.448 566.858L514.472 570.014C514.515 570.083 514.585 570.131 514.665 570.147C514.744 570.164 514.827 570.146 514.893 570.099L531.289 558.634C531.415 558.529 531.435 558.342 531.335 558.213Z"
    fill="#464A5F" />
  <path opacity="0.1"
    d="M532.104 547.774L523.136 534.87C522.62 534.123 521.592 533.929 520.835 534.435L496.133 550.856C495.765 551.102 495.512 551.483 495.428 551.914C495.345 552.345 495.438 552.792 495.687 553.155L504.828 566.428C505.076 566.792 505.461 567.043 505.897 567.125C506.333 567.206 506.784 567.112 507.15 566.863L531.679 550.059C532.042 549.813 532.291 549.433 532.371 549.004C532.451 548.575 532.355 548.132 532.104 547.774Z"
    fill="black" />
  <path
    d="M532.1 547.772L523.127 534.867C522.608 534.124 521.582 533.93 520.823 534.432L496.141 550.868C495.77 551.112 495.514 551.492 495.429 551.924C495.344 552.356 495.437 552.804 495.688 553.167L504.808 566.428C505.056 566.792 505.441 567.043 505.878 567.125C506.314 567.206 506.765 567.112 507.131 566.863L531.687 550.058C532.049 549.809 532.295 549.429 532.373 549C532.45 548.571 532.352 548.129 532.1 547.772Z"
    fill="#939498" />
  <path
    d="M585.908 568.407L567.248 562.153L507.398 603.922L525.922 609.985C526.934 610.317 528.043 610.152 528.916 609.539L586.077 569.606C586.305 569.472 586.429 569.212 586.392 568.95C586.355 568.687 586.164 568.473 585.908 568.407V568.407Z"
    fill="white" />
</svg>