<svg width="4919" height="1004" viewBox="0 0 4919 1004" fill="none"
  xmlns="http://www.w3.org/2000/svg">
  <g clip-path="url(#clip0_2026_3829)">
    <path
      d="M1620.49 482C1676.75 448.59 1711.65 385.2 1711.65 312.41C1711.65 205.29 1646.03 80.21 1461.11 80.21H1162.89V923.64H1461.11C1663.18 923.64 1734.88 790.66 1734.88 676.77C1734.88 590.08 1693.62 520.64 1620.49 482ZM1424.43 429.9H1289.82V197.36H1424.43C1568.1 197.36 1584.72 263.72 1584.72 313.63C1584.72 363.54 1568.11 429.9 1424.43 429.9ZM1289.82 547.05H1447.66C1592.33 547.05 1607.95 637.76 1607.95 676.77C1607.95 715.78 1592.33 806.49 1447.66 806.49H1289.82V547.05Z"
      fill="white" />
    <path
      d="M2117.16 261.17C1934.52 261.17 1785.92 409.76 1785.92 592.4C1785.92 775.04 1934.51 923.64 2117.16 923.64C2299.81 923.64 2448.4 775.05 2448.4 592.4C2448.4 409.75 2299.81 261.17 2117.16 261.17ZM2117.16 801.6C2002.6 801.6 1912.86 709.71 1912.86 592.4C1912.86 475.09 2002.6 383.21 2117.16 383.21C2231.72 383.21 2321.46 475.09 2321.46 592.4C2321.46 709.71 2231.72 801.6 2117.16 801.6Z"
      fill="white" />
    <path
      d="M3661.77 261.17C3479.8 261.17 3331.76 409.76 3331.76 592.4C3331.76 775.04 3480.35 923.64 3662.99 923.64C3765.44 923.64 3857.47 883.25 3922.12 809.89L3931.58 799.15L3840.66 716.2L3830.84 726.77C3787.33 773.62 3724.58 801.59 3662.99 801.59C3568.81 801.59 3488.37 737.16 3465.66 646.08H3976.73L3978.24 633.22C3978.35 632.33 3980.77 611.33 3980.77 588.73C3980.77 401.99 3843.63 261.16 3661.77 261.16V261.17ZM3661.77 383.21C3754.43 383.21 3820.47 436.49 3845.21 530.16H3467.41C3491.95 442.78 3569.54 383.21 3661.77 383.21Z"
      fill="white" />
    <path
      d="M4044.09 569.77V923.64H4171.73V566.91C4171.73 453.24 4229.37 393.16 4338.4 393.16H4373.16V261.17H4371.97C4156.27 261.17 4049.02 362.1 4044.09 569.78V569.77Z"
      fill="white" />
    <path
      d="M3237.37 258.1L3087.75 651.73L2925.39 258.1H2853.82L2691.44 651.74L2540.03 258.1H2406.8L2664.91 923.64H2720.88L2889.6 499.97L3058.32 923.64H3114.18L3370.67 258.1H3237.37Z"
      fill="white" />
    <path
      d="M4695.41 519.46C4680.42 516.32 4666.96 513.27 4654.63 510.23C4580.49 491.99 4552.92 474.86 4552.92 449.35C4552.92 411.65 4599.23 383.21 4660.63 383.21C4698.17 383.21 4761.81 392.55 4782.51 452.23L4900.97 398.5C4867.66 311.73 4783.83 261.16 4669.2 261.16C4530.55 261.16 4425.99 344.68 4425.99 455.45C4425.99 552.72 4489.81 607.08 4639.49 637.25C4646.82 638.68 4653.81 640.13 4660.54 641.57C4755.58 662.01 4791.57 684.17 4791.57 720.77C4791.57 768.35 4740.74 801.58 4667.96 801.58C4629.28 801.58 4540.91 792.54 4530.55 711.62L4412.25 775.38C4443.36 866.91 4534.69 923.62 4658.18 923.62C4809.02 923.62 4918.5 838.31 4918.5 720.77C4918.5 610.88 4853.86 552.56 4695.39 519.44L4695.41 519.46Z"
      fill="white" />
    <path
      d="M501.92 0C224.72 0 0 224.72 0 501.92C0 779.12 224.72 1003.84 501.92 1003.84C779.12 1003.84 1003.84 779.12 1003.84 501.92C1003.84 224.72 779.13 0 501.92 0ZM327.04 244.38H593.99C655.5 244.38 705.82 294.7 705.82 356.21C705.82 410.83 666.1 456.54 614.14 466.11C621.04 453.79 625.02 439.64 625.02 424.59C625.02 377.48 586.48 338.94 539.37 338.94H327.04L256.49 244.38H327.04ZM647.64 771.44H327.04V502.83H647.64C721.51 502.83 781.94 563.27 781.94 637.13C781.94 710.99 721.5 771.43 647.64 771.43V771.44Z"
      fill="white" />
  </g>
  <defs>
    <clipPath id="clip0_2026_3829">
      <rect width="4918.52" height="1003.85" fill="white" />
    </clipPath>
  </defs>
</svg>