<?xml version="1.0" encoding="utf-8"?>
<!-- Generator: Adobe Illustrator 24.2.0, SVG Export Plug-In . SVG Version: 6.00 Build 0)  -->
<svg version="1.1" id="Layer_1" xmlns="http://www.w3.org/2000/svg" xmlns:xlink="http://www.w3.org/1999/xlink" x="0px" y="0px"
	 viewBox="0 0 6000 2000" style="enable-background:new 0 0 6000 2000;" xml:space="preserve">
<style type="text/css">
	.st0{fill:#FFFFFF;}
</style>
<rect x="0" width="6000" height="2000"/>
<g>
	<g>
		<path class="st0" d="M2161.2,980.1c56.3-33.4,91.2-96.8,91.2-169.6c0-107.1-65.6-232.2-250.5-232.2h-298.2v843.4h298.2
			c202.1,0,273.8-133,273.8-246.9C2275.6,1088.2,2234.4,1018.7,2161.2,980.1z M1965.2,928h-134.6V695.4h134.6
			c143.7,0,160.3,66.4,160.3,116.3C2125.5,861.6,2108.8,928,1965.2,928z M1830.6,1045.1h157.8c144.7,0,160.3,90.7,160.3,129.7
			s-15.6,129.7-160.3,129.7h-157.8V1045.1z"/>
		<path class="st0" d="M2657.9,759.2c-182.6,0-331.2,148.6-331.2,331.2c0,182.6,148.6,331.2,331.2,331.2
			c182.6,0,331.2-148.6,331.2-331.2C2989.1,907.8,2840.5,759.2,2657.9,759.2z M2657.9,1299.7c-114.6,0-204.3-91.9-204.3-209.2
			s89.7-209.2,204.3-209.2s204.3,91.9,204.3,209.2S2772.5,1299.7,2657.9,1299.7z"/>
		<path class="st0" d="M4202.5,759.2c-182,0-330,148.6-330,331.2c0,182.6,148.6,331.2,331.2,331.2c102.5,0,194.5-40.4,259.1-113.7
			l9.5-10.7l-90.9-82.9l-9.8,10.6c-43.5,46.9-106.3,74.8-167.9,74.8c-94.2,0-174.6-64.4-197.3-155.5h511.1l1.5-12.9
			c0.1-0.9,2.5-21.9,2.5-44.5C4521.5,900.1,4384.4,759.2,4202.5,759.2z M4202.5,881.3c92.7,0,158.7,53.3,183.4,147h-377.8
			C4032.7,940.9,4110.3,881.3,4202.5,881.3z"/>
		<path class="st0" d="M4584.8,1067.8v353.9h127.6V1065c0-113.7,57.6-173.8,166.7-173.8h34.8v-132h-1.2
			C4697,759.2,4589.8,860.2,4584.8,1067.8z"/>
		<polygon class="st0" points="3778.1,756.2 3628.5,1149.8 3466.1,756.2 3394.6,756.2 3232.2,1149.8 3080.8,756.2 2947.5,756.2 
			3205.6,1421.7 3261.6,1421.7 3430.3,998 3599.1,1421.7 3654.9,1421.7 3911.4,756.2 		"/>
		<path class="st0" d="M5236.2,1017.5c-15-3.1-28.5-6.2-40.8-9.2c-74.1-18.2-101.7-35.4-101.7-60.9c0-37.7,46.3-66.1,107.7-66.1
			c37.5,0,101.2,9.3,121.9,69l118.5-53.7c-33.3-86.8-117.1-137.3-231.8-137.3c-138.6,0-243.2,83.5-243.2,194.3
			c0,97.3,63.8,151.6,213.5,181.8c7.3,1.4,14.3,2.9,21.1,4.3c95,20.4,131,42.6,131,79.2c0,47.6-50.8,80.8-123.6,80.8
			c-38.7,0-127.1-9-137.4-90h0l-118.3,63.8c31.1,91.5,122.4,148.2,245.9,148.2c150.8,0,260.3-85.3,260.3-202.9
			C5459.3,1109,5394.6,1050.7,5236.2,1017.5z"/>
	</g>
	<g>
		<path class="st0" d="M1042.7,498.1c-277.2,0-501.9,224.7-501.9,501.9c0,277.2,224.7,501.9,501.9,501.9
			c277.2,0,501.9-224.7,501.9-501.9C1544.6,722.8,1319.9,498.1,1042.7,498.1z M867.8,742.5h267c61.5,0,111.8,50.3,111.8,111.8v0
			c0,54.6-39.7,100.3-91.7,109.9c6.9-12.3,10.9-26.5,10.9-41.5v0c0-47.1-38.5-85.7-85.7-85.7H867.8l-70.5-94.6H867.8z
			 M1188.4,1269.5H867.8v-268.6h320.6c73.9,0,134.3,60.4,134.3,134.3C1322.7,1209.1,1262.2,1269.5,1188.4,1269.5z"/>
	</g>
</g>
</svg>
